<svg enable-background="new 0 0 24 24" fill="#4a3656" height="512" viewBox="0 0 24 24" width="512" xmlns="http://www.w3.org/2000/svg"><path d="m21.25 0h-18.5c-1.517 0-2.75 1.233-2.75 2.75v18.5c0 1.517 1.233 2.75 2.75 2.75h18.5c1.517 0 2.75-1.233 2.75-2.75v-18.5c0-1.517-1.233-2.75-2.75-2.75zm-6.25 16.25c0 .267-.142.514-.372.648-.117.068-.247.102-.378.102-.128 0-.255-.032-.37-.098l-7.5-4.25c-.234-.132-.38-.381-.38-.652s.146-.52.38-.652l7.5-4.25c.233-.132.517-.129.748.004.23.134.372.381.372.648z"/></svg>
