<svg enable-background="new 0 0 24 24" fill="#4a3656" height="512" viewBox="0 0 24 24" width="512" xmlns="http://www.w3.org/2000/svg"><path d="m21.25 0h-18.5c-1.517 0-2.75 1.233-2.75 2.75v18.5c0 1.517 1.233 2.75 2.75 2.75h18.5c1.517 0 2.75-1.233 2.75-2.75v-18.5c0-1.517-1.233-2.75-2.75-2.75zm-4.63 12.652-7.5 4.25c-.115.066-.243.098-.37.098-.13 0-.261-.034-.377-.102-.231-.134-.373-.381-.373-.648v-8.5c0-.267.142-.514.373-.648.23-.134.515-.136.747-.004l7.5 4.25c.235.132.38.381.38.652s-.145.52-.38.652z"/></svg>
